<svg width="24" height="24" viewBox="0 0 24 24" fill="none" xmlns="http://www.w3.org/2000/svg">
<g id="administracion-icon">
<path id="Vector" d="M18 11.9V18C18 20.2091 16.2091 22 14 22H6C3.79086 22 2 20.2091 2 18V10C2 7.79086 3.79086 6 6 6H12.1M18 11.9C20.2822 11.4367 22 9.41896 22 7C22 4.23858 19.7614 2 17 2C14.581 2 12.5633 3.71776 12.1 6M18 11.9C17.6769 11.9656 17.3425 12 17 12C14.2386 12 12 9.76142 12 7C12 6.65753 12.0344 6.32311 12.1 6" stroke="#3C4043" stroke-opacity="0.8" stroke-width="1.5" stroke-linejoin="round"/>
</g>
</svg>
