<svg width="20" height="20" viewBox="0 0 20 20" fill="none" xmlns="http://www.w3.org/2000/svg">
<g id="Huge-icon/ajustes">
<path id="Vector" d="M17.2866 13.1005L16.647 12.7088L16.647 12.7088L17.2866 13.1005ZM16.4911 14.3995L17.1307 14.7912L17.1307 14.7912L16.4911 14.3995ZM2.71341 6.89951L2.0738 6.50785L2.0738 6.50785L2.71341 6.89951ZM3.50887 5.60048L4.14848 5.99214L4.14848 5.99214L3.50887 5.60048ZM5.6821 5.05144L6.04068 4.39271L6.04068 4.39271L5.6821 5.05144ZM3.29572 8.94855L2.93714 9.60728L2.93714 9.60728L3.29572 8.94855ZM14.3179 14.9486L13.9593 15.6073L13.9593 15.6073L14.3179 14.9486ZM16.7043 11.0514L16.3457 11.7102L16.3457 11.7102L16.7043 11.0514ZM3.50887 14.3995L2.86925 14.7912L2.86925 14.7912L3.50887 14.3995ZM2.71341 13.1005L3.35302 12.7088L3.35302 12.7088L2.71341 13.1005ZM16.4911 5.60049L17.1307 5.20883L17.1307 5.20882L16.4911 5.60049ZM17.2866 6.89952L16.647 7.29119L16.647 7.29119L17.2866 6.89952ZM16.7043 8.94856L17.0629 9.60729L17.0629 9.60729L16.7043 8.94856ZM14.3179 5.05145L14.6765 5.71017L14.6765 5.71017L14.3179 5.05145ZM3.29572 11.0514L3.6543 11.7102L3.6543 11.7102L3.29572 11.0514ZM5.6821 14.9486L5.32352 14.2898L5.32351 14.2898L5.6821 14.9486ZM14.2333 5.09748L13.8748 4.43876L13.8748 4.43876L14.2333 5.09748ZM5.76667 5.09747L5.40808 5.7562L5.40809 5.7562L5.76667 5.09747ZM14.2333 14.9025L14.5919 14.2438L14.5919 14.2438L14.2333 14.9025ZM5.76667 14.9025L6.12524 15.5613L6.12525 15.5613L5.76667 14.9025ZM9.20454 3.25H10.7955V1.75H9.20454V3.25ZM10.7955 16.75H9.20454V18.25H10.7955V16.75ZM9.20454 16.75C8.69793 16.75 8.36363 16.3732 8.36363 16H6.86363C6.86363 17.2836 7.95388 18.25 9.20454 18.25V16.75ZM11.6364 16C11.6364 16.3732 11.3021 16.75 10.7955 16.75V18.25C12.0461 18.25 13.1364 17.2836 13.1364 16H11.6364ZM10.7955 3.25C11.3021 3.25 11.6364 3.62675 11.6364 4H13.1364C13.1364 2.71639 12.0461 1.75 10.7955 1.75V3.25ZM9.20454 1.75C7.95388 1.75 6.86363 2.71639 6.86363 4H8.36363C8.36363 3.62675 8.69793 3.25 9.20454 3.25V1.75ZM16.647 12.7088L15.8515 14.0079L17.1307 14.7912L17.9262 13.4921L16.647 12.7088ZM3.35302 7.29117L4.14848 5.99214L2.86926 5.20881L2.0738 6.50785L3.35302 7.29117ZM4.14848 5.99214C4.36925 5.6316 4.89631 5.47761 5.32351 5.71016L6.04068 4.39271C4.94603 3.79684 3.52712 4.13448 2.86926 5.20881L4.14848 5.99214ZM3.65431 8.28983C3.2505 8.07001 3.14948 7.62357 3.35302 7.29117L2.0738 6.50785C1.3987 7.61034 1.8191 8.99866 2.93714 9.60728L3.65431 8.28983ZM15.8515 14.0079C15.6307 14.3684 15.1037 14.5224 14.6765 14.2898L13.9593 15.6073C15.054 16.2032 16.4729 15.8655 17.1307 14.7912L15.8515 14.0079ZM17.9262 13.4921C18.6013 12.3897 18.1809 11.0013 17.0629 10.3927L16.3457 11.7102C16.7495 11.93 16.8505 12.3764 16.647 12.7088L17.9262 13.4921ZM4.14848 14.0079L3.35302 12.7088L2.0738 13.4921L2.86925 14.7912L4.14848 14.0079ZM15.8515 5.99215L16.647 7.29119L17.9262 6.50786L17.1307 5.20883L15.8515 5.99215ZM16.647 7.29119C16.8505 7.62358 16.7495 8.07002 16.3457 8.28984L17.0629 9.60729C18.1809 8.99867 18.6013 7.61035 17.9262 6.50786L16.647 7.29119ZM14.6765 5.71017C15.1037 5.47762 15.6307 5.63161 15.8515 5.99215L17.1307 5.20882C16.4729 4.13449 15.054 3.79685 13.9593 4.39272L14.6765 5.71017ZM3.35302 12.7088C3.14948 12.3764 3.2505 11.93 3.6543 11.7102L2.93714 10.3927C1.8191 11.0013 1.3987 12.3897 2.0738 13.4921L3.35302 12.7088ZM2.86925 14.7912C3.52712 15.8655 4.94603 16.2032 6.04068 15.6073L5.32351 14.2898C4.89631 14.5224 4.36925 14.3684 4.14848 14.0079L2.86925 14.7912ZM14.5919 5.75621L14.6765 5.71017L13.9593 4.39272L13.8748 4.43876L14.5919 5.75621ZM5.32351 5.71016L5.40808 5.7562L6.12525 4.43875L6.04068 4.39271L5.32351 5.71016ZM14.6765 14.2898L14.5919 14.2438L13.8748 15.5612L13.9593 15.6073L14.6765 14.2898ZM5.40809 14.2438L5.32352 14.2898L6.04067 15.6073L6.12524 15.5613L5.40809 14.2438ZM2.93714 9.60728C3.24828 9.77665 3.24829 10.2233 2.93714 10.3927L3.6543 11.7102C5.00923 10.9726 5.00923 9.02739 3.65431 8.28983L2.93714 9.60728ZM6.12525 15.5613C6.45812 15.38 6.86363 15.621 6.86363 16H8.36363C8.36363 14.483 6.74049 13.5185 5.40808 14.2438L6.12525 15.5613ZM13.1364 16C13.1364 15.621 13.5419 15.38 13.8748 15.5612L14.5919 14.2438C13.2595 13.5185 11.6364 14.483 11.6364 16H13.1364ZM17.0629 10.3927C16.7517 10.2233 16.7517 9.77666 17.0629 9.60729L16.3457 8.28984C14.9908 9.0274 14.9908 10.9726 16.3457 11.7102L17.0629 10.3927ZM5.40809 5.7562C6.74049 6.4815 8.36363 5.51702 8.36363 4H6.86363C6.86363 4.379 6.45812 4.61995 6.12525 4.43875L5.40809 5.7562ZM13.8748 4.43876C13.5419 4.61996 13.1364 4.379 13.1364 4H11.6364C11.6364 5.51703 13.2595 6.48151 14.5919 5.75621L13.8748 4.43876ZM11.75 10C11.75 10.9665 10.9665 11.75 10 11.75V13.25C11.7949 13.25 13.25 11.7949 13.25 10H11.75ZM10 11.75C9.03351 11.75 8.25001 10.9665 8.25001 10H6.75001C6.75001 11.7949 8.20508 13.25 10 13.25V11.75ZM8.25001 10C8.25001 9.0335 9.03351 8.25 10 8.25V6.75C8.20508 6.75 6.75001 8.20507 6.75001 10H8.25001ZM10 8.25C10.9665 8.25 11.75 9.0335 11.75 10H13.25C13.25 8.20507 11.7949 6.75 10 6.75V8.25Z" fill="#3C4043" fill-opacity="0.6"/>
</g>
</svg>
