<svg width="40" height="40" viewBox="0 0 40 40" fill="none" xmlns="http://www.w3.org/2000/svg">
<g id="Frame 1000006260">
<g id="Icon">
<path id="shape" d="M13.8936 27.7944C14.1678 28.0685 14.6123 28.0685 14.8865 27.7944L19.9007 22.7801C19.9556 22.7253 20.0444 22.7253 20.0993 22.7801L25.1135 27.7944C25.3877 28.0686 25.8323 28.0685 26.1064 27.7944L27.7944 26.1064C28.0685 25.8323 28.0685 25.3877 27.7944 25.1135L22.7802 20.0993C22.7253 20.0444 22.7253 19.9555 22.7802 19.9006L27.7943 14.8865C28.0685 14.6123 28.0685 14.1678 27.7943 13.8936L26.1064 12.2056C25.8322 11.9315 25.3877 11.9315 25.1134 12.2056L20.0993 17.2199C20.0444 17.2746 19.9556 17.2746 19.9007 17.2199L14.8866 12.2056C14.6123 11.9315 14.1678 11.9315 13.8937 12.2056L12.2057 13.8936C11.9315 14.1678 11.9315 14.6123 12.2057 14.8865L17.2198 19.9006C17.2747 19.9555 17.2747 20.0444 17.2198 20.0993L12.2056 25.1135C11.9315 25.3877 11.9315 25.8323 12.2056 26.1064L13.8936 27.7944Z" fill="white"/>
</g>
</g>
</svg>
