<svg xmlns="http://www.w3.org/2000/svg" style="display: none;">

 <!-- Icono mas vendidos orange -->
  <symbol id="icon-mas-vendidos" viewBox="0 0 44 44">
    <rect width="44" height="44" rx="22" fill="#FF7733"/>
    <path d="M24.8828 20.8359L24.3906 23.3496H26.7637V24.8174H24.1094L23.3975 28.5H21.833L22.5537 24.8174H20.3564L19.6621 28.5H18.1328L18.8096 24.8174H16.6123V23.3496H19.0908L19.5918 20.8359H17.2627V19.3682H19.8555L20.5586 15.6592H22.123L21.4199 19.3682H23.6348L24.3467 15.6592H25.8672L25.1641 19.3682H27.3789V20.8359H24.8828ZM20.6377 23.3496H22.835L23.3359 20.8359H21.1299L20.6377 23.3496Z" fill="white"/>
  </symbol>

  <!-- Icono Nuevos produstos -->
  <symbol id="icon-nuevos-productos" viewBox="0 0 44 44" xmlns="http://www.w3.org/2000/svg">
    <rect width="44" height="44" rx="22" fill="#CC0C39"/>
    <path d="M5.48975 22.9121H6.61963L6.92432 29.355H5.18506L5.48975 22.9121ZM7.00049 20.8618C7.00049 21.2088 6.90951 21.4543 6.72754 21.5981C6.54557 21.742 6.3234 21.814 6.06104 21.814C5.80713 21.814 5.58919 21.742 5.40723 21.5981C5.22526 21.4543 5.13428 21.2088 5.13428 20.8618C5.13428 20.5275 5.22526 20.2863 5.40723 20.1382C5.58919 19.9858 5.80713 19.9097 6.06104 19.9097C6.3234 19.9097 6.54557 19.9858 6.72754 20.1382C6.90951 20.2863 7.00049 20.5275 7.00049 20.8618ZM16.8267 27H14.9541L10.4092 19.5923H10.3521C10.369 19.842 10.3838 20.1064 10.3965 20.3857C10.4134 20.665 10.4261 20.9528 10.4346 21.249C10.4473 21.5452 10.4578 21.8457 10.4663 22.1504V27H9.08252V17.7197H10.9424L15.481 25.0767H15.5254C15.5169 24.8608 15.5063 24.6133 15.4937 24.334C15.481 24.0547 15.4683 23.7669 15.4556 23.4707C15.4471 23.1702 15.4408 22.8804 15.4365 22.6011V17.7197H16.8267V27ZM21.9111 19.8398C22.5374 19.8398 23.0749 19.9689 23.5234 20.2271C23.972 20.4852 24.3169 20.8512 24.5581 21.3252C24.7993 21.7992 24.9199 22.3662 24.9199 23.0264V23.8262H20.229C20.2459 24.5075 20.4279 25.0322 20.7749 25.4004C21.1261 25.7686 21.617 25.9526 22.2476 25.9526C22.6961 25.9526 23.0981 25.9103 23.4536 25.8257C23.8133 25.7368 24.1836 25.6077 24.5645 25.4385V26.6509C24.2132 26.8159 23.8556 26.9365 23.4917 27.0127C23.1278 27.0889 22.6919 27.127 22.1841 27.127C21.4943 27.127 20.887 26.9937 20.3623 26.7271C19.8418 26.4562 19.4334 26.0542 19.1372 25.521C18.8452 24.9878 18.6992 24.3255 18.6992 23.5342C18.6992 22.7471 18.8325 22.0785 19.0991 21.5283C19.3657 20.9782 19.7402 20.5592 20.2227 20.2715C20.7051 19.9837 21.2679 19.8398 21.9111 19.8398ZM21.9111 20.9634C21.4414 20.9634 21.0605 21.1157 20.7686 21.4204C20.4808 21.7251 20.3115 22.1715 20.2607 22.7598H23.46C23.4557 22.4085 23.3965 22.0975 23.2822 21.8267C23.1722 21.5558 23.0029 21.3442 22.7744 21.1919C22.5501 21.0396 22.2624 20.9634 21.9111 20.9634Z" fill="white"/>
  </symbol>

  <symbol id="icon-circles" viewBox="0 0 56 16">
    <g id="Frame 1000005297">
      <circle id="Ellipse 1247" cx="3" cy="3" r="3" fill="white" fill-opacity="0.2"/>
      <circle id="Ellipse 1248" cx="13" cy="3" r="3" fill="white" fill-opacity="0.2"/>
      <circle id="Ellipse 1249" cx="23" cy="3" r="3" fill="white" fill-opacity="0.2"/>
      <circle id="Ellipse 1250" cx="33" cy="3" r="3" fill="white" fill-opacity="0.2"/>
      <circle id="Ellipse 1251" cx="43" cy="3" r="3" fill="white" fill-opacity="0.2"/>
      <circle id="Ellipse 1252" cx="53" cy="3" r="3" fill="white" fill-opacity="0.2"/>
      <circle id="Ellipse 1253" cx="3" cy="13" r="3" fill="white" fill-opacity="0.2"/>
      <circle id="Ellipse 1254" cx="13" cy="13" r="3" fill="white" fill-opacity="0.2"/>
      <circle id="Ellipse 1255" cx="23" cy="13" r="3" fill="white" fill-opacity="0.2"/>
      <circle id="Ellipse 1256" cx="33" cy="13" r="3" fill="white" fill-opacity="0.2"/>
      <circle id="Ellipse 1257" cx="43" cy="13" r="3" fill="white" fill-opacity="0.2"/>
      <circle id="Ellipse 1258" cx="53" cy="13" r="3" fill="white" fill-opacity="0.2"/>
    </g>
  </symbol>

  <!-- Icono de flecha link-->
  <svg style="background: none;">
    <symbol id="chevron" viewBox="0 0 9 14">
      <path d="M1 1L7 7L1 13" stroke="currentColor" stroke-width="2" stroke-linecap="round" stroke-linejoin="round" fill="none" />
    </symbol>
    <use xlink:href="#chevron" />
  </svg>

  <!-- Icono de carrito vacio-->


  <symbol id="cart-supermarket-icon" viewBox="0 0 70 54">
    <path
      fill-rule="evenodd"
      clip-rule="evenodd" d="M22.6621 54C17.984 51.3617 13.4035 47.5184 10.6712 42.918C5.87748 34.8467 6.53805 28.9594 9.00287 22.9701C11.4936 16.916 20.5976 13.3489 27.5967 14.4789C34.5957 15.6088 39.4948 22.6359 48.9338 23.6441C58.3728 24.6523 66.0459 29.4308 68.2482 36.2645C70.5602 43.4397 66.0334 49.4376 61.9632 52.3127C61.1241 52.9054 60.2808 53.4646 59.4213 53.9862L22.6621 54Z"
      fill="black"
      fill-opacity="0.04">
    </path>
    <path
      d="M35.3005 48.9364C35.3005 49.7283 35.057 50.5025 34.601 51.161C34.1449 51.8195 33.4966 52.3327 32.7382 52.6358C31.9797 52.9389 31.1451 53.0182 30.34 52.8637C29.5348 52.7092 28.7952 52.3278 28.2147 51.7678C27.6342 51.2078 27.2389 50.4943 27.0788 49.7176C26.9186 48.9408 27.0008 48.1357 27.315 47.404C27.6291 46.6723 28.1611 46.047 28.8437 45.607C29.5263 45.167 30.3288 44.9321 31.1498 44.9321C32.2506 44.9321 33.3064 45.354 34.0848 46.1049C34.8632 46.8559 35.3005 47.8744 35.3005 48.9364Z"
      fill="white" stroke="#333333"
      stroke-width="1.5">
    </path>
    <path
      d="M52.9226 48.9364C52.9226 49.7283 52.6791 50.5025 52.223 51.161C51.7669 51.8195 51.1187 52.3327 50.3602 52.6358C49.6018 52.9389 48.7672 53.0182 47.9621 52.8637C47.1569 52.7092 46.4173 52.3278 45.8368 51.7678C45.2563 51.2078 44.861 50.4943 44.7009 49.7176C44.5407 48.9408 44.6229 48.1357 44.937 47.404C45.2512 46.6723 45.7832 46.047 46.4658 45.607C47.1484 45.167 47.9509 44.9321 48.7718 44.9321C49.8727 44.9321 50.9284 45.354 51.7068 46.1049C52.4853 46.8559 52.9226 47.8744 52.9226 48.9364Z"
      fill="white"
      stroke="#333333"
      stroke-width="1.5">
    </path>
    <path
      d="M55.9736 34.4237L23.5129 34.4237L18.9494 16.7051L62.9397 16.7051L58.3767 32.613C58.0692 33.685 57.0888 34.4237 55.9736 34.4237ZM63.1226 16.0672L63.1223 16.0682L63.1226 16.0672Z"
      fill="#EEEEEE"
      stroke="white"
      stroke-width="3"
      stroke-linecap="square">
    </path>
    <path
      d="M22.3503 35.9237L55.9736 35.9237C57.758 35.9237 59.3265 34.7418 59.8185 33.0266L64.5645 16.4808C64.7478 15.8418 64.2681 15.2051 63.6033 15.2051L17.0142 15.2051L22.3503 35.9237Z"
      stroke="#333333"
      stroke-width="1.5"
      stroke-linecap="square">
    </path>
    <line
      x1="18.7505"
       y1="22.7261"
       x2="62.3655"
       y2="22.7261"
       stroke="#333333"
       stroke-width="1.5"
       stroke-linecap="round">
    </line>
    <line
      x1="20.9172"
      y1="30.1001"
      x2="60.4778"
      y2="30.1001"
      stroke="#333333"
      stroke-width="1.5"
      stroke-linecap="round">
    </line>
    <path
      d="M11.7366 4.85498C13.2886 4.98674 14.5832 6.05372 14.9604 7.51206L23.4621 40.3958C23.6466 41.1092 24.3109 41.6098 25.073 41.6098H55.057"
      stroke="#333333"
      stroke-width="1.5"
      stroke-linecap="round">
    </path>
    <path
      d="M32.6701 46.9908C33.3912 49.1578 30.3097 50.1985 29.3959 47.9986C28.8517 46.6812 26.9448 41.6094 26.9448 41.6094H30.5274H34.11C34.11 41.6094 31.7269 44.1607 32.6701 46.9908Z"
      fill="white">
    </path>
    <path
      d="M32.6701 46.9908C33.3912 49.1578 30.3097 50.1985 29.3959 47.9986C28.8517 46.6812 26.9448 41.6094 26.9448 41.6094H30.5274H34.11C34.11 41.6094 31.7269 44.1607 32.6701 46.9908Z"
      stroke="#333333"
      stroke-width="1.5">
    </path>
    <path
      d="M50.2922 46.9908C51.0132 49.1578 47.9318 50.1985 47.018 47.9986C46.4738 46.6812 44.5669 41.6094 44.5669 41.6094H48.1495H51.732C51.732 41.6094 49.3489 44.1607 50.2922 46.9908Z"
      fill="white">
    </path>
    <path
      d="M50.2922 46.9908C51.0132 49.1578 47.9318 50.1985 47.018 47.9986C46.4738 46.6812 44.5669 41.6094 44.5669 41.6094H48.1495H51.732C51.732 41.6094 49.3489 44.1607 50.2922 46.9908Z"
      stroke="#333333"
      stroke-width="1.5">
    </path>
    <path
      d="M3.31856 2.04498C2.3138 1.95968 1.42759 2.67631 1.33917 3.64561C1.25075 4.61492 1.9936 5.46984 2.99837 5.55514L10.8275 6.21979C11.1928 6.2508 11.5151 5.99021 11.5473 5.63774L11.751 3.404C11.7832 3.05152 11.513 2.74064 11.1477 2.70962L3.31856 2.04498Z"
      fill="white"
      stroke="#333333"
      stroke-width="1.5"
      stroke-linecap="round">
    </path>
    <path
      d="M33.4013 35.9175L28.1064 15.3804"
      stroke="#333333"
      stroke-width="1.5"
      stroke-linecap="round">
    </path>
    <path
      d="M45.3417 35.9175L40.0469 15.3804"
      stroke="#333333"
      stroke-width="1.5"
      stroke-linecap="round">
    </path>
    <path
      d="M51.9871 15.3804L57.1754 35.5044"
      stroke="#333333"
      stroke-width="1.5"
      stroke-linecap="round">
    </path>
    <path
      d="M69.6677 52.9404H9.79736"
      stroke="#333333"
      stroke-width="1.5">
    </path>
    <path
      d="M29.8208 5.44531L35.1403 9.85297"
      stroke="#333333"
      stroke-width="1.5"
      stroke-linecap="round">
    </path>
    <path
      d="M51.1311 5.44531L45.8116 9.85297"
      stroke="#333333"
      stroke-width="1.5"
      stroke-linecap="round">
    </path>
    <path
      d="M40.4758 0.901855V8.4523"
      stroke="#333333"
      stroke-width="1.5"
      stroke-linecap="round">
    </path>
  </symbol>

    <!-- Ícono de flecha atras para banner de cards historial-->
  <symbol id="icon-back" viewBox="0 0 24 24">
    <path d="M16 4L8 12L16 20" stroke="#3C4043" stroke-width="3" stroke-linecap="round" stroke-linejoin="round"/>
  </symbol>

  <!-- Ícono de flecha adelante para banner de cards historial-->
  <symbol id="icon-next" viewBox="0 0 24 24">
    <path d="M8 4L16 12L8 20" stroke="#3C4043" stroke-width="3" stroke-linecap="round" stroke-linejoin="round"/>
  </symbol>





</svg>
