<svg width="20" height="20" viewBox="0 0 20 20" fill="none" xmlns="http://www.w3.org/2000/svg">
<g id="Huge Icon/ Headphone">
<g id="Outline">
<path id="Vector" d="M17.5 13.3333V15C17.5 16.3807 16.3807 17.5 15 17.5C13.6193 17.5 12.5 16.3807 12.5 15V13.3333C12.5 11.9526 13.6193 10.8333 15 10.8333C16.3807 10.8333 17.5 11.9526 17.5 13.3333ZM17.5 13.3333V10C17.5 5.85786 14.1421 2.5 10 2.5C5.85786 2.5 2.5 5.85786 2.5 10V13.3333M2.5 13.3333V15C2.5 16.3807 3.61929 17.5 5 17.5C6.38071 17.5 7.5 16.3807 7.5 15V13.3333C7.5 11.9526 6.38071 10.8333 5 10.8333C3.61929 10.8333 2.5 11.9526 2.5 13.3333Z" stroke="#3C4043" stroke-opacity="0.6" stroke-width="1.5" stroke-linecap="square" stroke-linejoin="round"/>
</g>
</g>
</svg>
