<svg width="32" height="32" viewBox="0 0 32 32" fill="none" xmlns="http://www.w3.org/2000/svg">
<g id="Icon-ajustes">
<rect width="32" height="32" rx="16" fill="#DA0E5F" fill-opacity="0.12"/>
<g id="Huge-icon">
<g id="setting">
<path id="Vector" opacity="0.4" d="M16.9092 7.42773H15.091C14.0869 7.42773 13.2729 8.19525 13.2729 9.14202C13.2729 10.2255 12.1136 10.9143 11.162 10.3963L11.0654 10.3437C10.1958 9.87028 9.08378 10.1512 8.5817 10.9711L7.67261 12.4557C7.17053 13.2757 7.46848 14.3241 8.33811 14.7975C9.29015 15.3158 9.29015 16.6826 8.33811 17.2008C7.46848 17.6742 7.17053 18.7226 7.67261 19.5426L8.5817 21.0272C9.08378 21.8471 10.1958 22.128 11.0654 21.6547L11.162 21.602C12.1136 21.084 13.2729 21.7729 13.2729 22.8563C13.2729 23.8031 14.0869 24.5706 15.091 24.5706H16.9092C17.9134 24.5706 18.7274 23.8031 18.7274 22.8563C18.7274 21.7729 19.8867 21.084 20.8382 21.602L20.9349 21.6546C21.8045 22.128 22.9165 21.8471 23.4186 21.0272L24.3277 19.5426C24.8298 18.7226 24.5318 17.6742 23.6622 17.2008C22.7101 16.6826 22.7101 15.3158 23.6622 14.7975C24.5318 14.3241 24.8298 13.2757 24.3277 12.4558L23.4186 10.9711C22.9165 10.1512 21.8045 9.87029 20.9349 10.3437L20.8382 10.3963C19.8867 10.9143 18.7274 10.2255 18.7274 9.14202C18.7274 8.19525 17.9134 7.42773 16.9092 7.42773Z" fill="#DA0E5F"/>
<circle id="Ellipse 91" cx="15.9997" cy="15.9997" r="2.85714" fill="#DA0E5F"/>
</g>
</g>
</g>
</svg>
