<svg width="24" height="24" viewBox="0 0 24 24" fill="none" xmlns="http://www.w3.org/2000/svg">
<g id="Icon-camera">
<rect width="24" height="24" rx="12" fill="white"/>
<g id="camera-solid" clip-path="url(#clip0_891_4283)">
<path id="Vector" d="M9.49453 7.51875L9.25078 8.25H7.5C6.67266 8.25 6 8.92266 6 9.75V15.75C6 16.5773 6.67266 17.25 7.5 17.25H16.5C17.3273 17.25 18 16.5773 18 15.75V9.75C18 8.92266 17.3273 8.25 16.5 8.25H14.7492L14.5055 7.51875C14.3531 7.05938 13.9242 6.75 13.4391 6.75H10.5609C10.0758 6.75 9.64688 7.05938 9.49453 7.51875ZM12 10.5C12.5967 10.5 13.169 10.7371 13.591 11.159C14.0129 11.581 14.25 12.1533 14.25 12.75C14.25 13.3467 14.0129 13.919 13.591 14.341C13.169 14.7629 12.5967 15 12 15C11.4033 15 10.831 14.7629 10.409 14.341C9.98705 13.919 9.75 13.3467 9.75 12.75C9.75 12.1533 9.98705 11.581 10.409 11.159C10.831 10.7371 11.4033 10.5 12 10.5Z" fill="#3C4043"/>
</g>
</g>
<defs>
<clipPath id="clip0_891_4283">
<rect width="12" height="12" fill="white" transform="translate(6 6)"/>
</clipPath>
</defs>
</svg>
