<svg width="88" height="88" viewBox="0 0 88 88" fill="none" xmlns="http://www.w3.org/2000/svg">
<g id="Icon-nuevos">
<rect width="88" height="88" rx="44" fill="#CC0C39"/>
<path id="&#194;&#161;New!" d="M13.5195 45.9531H15.6055L16.168 57.8477H12.957L13.5195 45.9531ZM16.3086 42.168C16.3086 42.8086 16.1406 43.2617 15.8047 43.5273C15.4688 43.793 15.0586 43.9258 14.5742 43.9258C14.1055 43.9258 13.7031 43.793 13.3672 43.5273C13.0312 43.2617 12.8633 42.8086 12.8633 42.168C12.8633 41.5508 13.0312 41.1055 13.3672 40.832C13.7031 40.5508 14.1055 40.4102 14.5742 40.4102C15.0586 40.4102 15.4688 40.5508 15.8047 40.832C16.1406 41.1055 16.3086 41.5508 16.3086 42.168ZM34.4492 53.5H30.9922L22.6016 39.8242H22.4961C22.5273 40.2852 22.5547 40.7734 22.5781 41.2891C22.6094 41.8047 22.6328 42.3359 22.6484 42.8828C22.6719 43.4297 22.6914 43.9844 22.707 44.5469V53.5H20.1523V36.3672H23.5859L31.9648 49.9492H32.0469C32.0312 49.5508 32.0117 49.0938 31.9883 48.5781C31.9648 48.0625 31.9414 47.5312 31.918 46.9844C31.9023 46.4297 31.8906 45.8945 31.8828 45.3789V36.3672H34.4492V53.5ZM43.8359 40.2812C44.9922 40.2812 45.9844 40.5195 46.8125 40.9961C47.6406 41.4727 48.2773 42.1484 48.7227 43.0234C49.168 43.8984 49.3906 44.9453 49.3906 46.1641V47.6406H40.7305C40.7617 48.8984 41.0977 49.8672 41.7383 50.5469C42.3867 51.2266 43.293 51.5664 44.457 51.5664C45.2852 51.5664 46.0273 51.4883 46.6836 51.332C47.3477 51.168 48.0312 50.9297 48.7344 50.6172V52.8555C48.0859 53.1602 47.4258 53.3828 46.7539 53.5234C46.082 53.6641 45.2773 53.7344 44.3398 53.7344C43.0664 53.7344 41.9453 53.4883 40.9766 52.9961C40.0156 52.4961 39.2617 51.7539 38.7148 50.7695C38.1758 49.7852 37.9062 48.5625 37.9062 47.1016C37.9062 45.6484 38.1523 44.4141 38.6445 43.3984C39.1367 42.3828 39.8281 41.6094 40.7188 41.0781C41.6094 40.5469 42.6484 40.2812 43.8359 40.2812ZM43.8359 42.3555C42.9688 42.3555 42.2656 42.6367 41.7266 43.1992C41.1953 43.7617 40.8828 44.5859 40.7891 45.6719H46.6953C46.6875 45.0234 46.5781 44.4492 46.3672 43.9492C46.1641 43.4492 45.8516 43.0586 45.4297 42.7773C45.0156 42.4961 44.4844 42.3555 43.8359 42.3555ZM63.1016 53.4883L61.4609 47.4531C61.3828 47.1562 61.2891 46.7969 61.1797 46.375C61.0703 45.9531 60.9609 45.5195 60.8516 45.0742C60.7422 44.6211 60.6406 44.2031 60.5469 43.8203C60.4609 43.4375 60.3945 43.1406 60.3477 42.9297H60.2539C60.2148 43.1406 60.1523 43.4375 60.0664 43.8203C59.9805 44.2031 59.8828 44.6211 59.7734 45.0742C59.6641 45.5273 59.5547 45.9688 59.4453 46.3984C59.3438 46.8281 59.25 47.1953 59.1641 47.5L57.4414 53.4883H54.418L50.7852 40.5156H53.5742L55.2617 46.9609C55.3711 47.3984 55.4766 47.8711 55.5781 48.3789C55.6875 48.8867 55.7812 49.3711 55.8594 49.832C55.9375 50.293 55.9961 50.6719 56.0352 50.9688H56.1289C56.1602 50.7578 56.2031 50.4922 56.2578 50.1719C56.3125 49.8438 56.375 49.5039 56.4453 49.1523C56.5156 48.793 56.5859 48.457 56.6562 48.1445C56.7266 47.8242 56.793 47.5664 56.8555 47.3711L58.8477 40.5156H61.8594L63.7695 47.3711C63.8555 47.668 63.9492 48.043 64.0508 48.4961C64.1523 48.9414 64.2422 49.3906 64.3203 49.8438C64.4062 50.2891 64.4609 50.6602 64.4844 50.957H64.5781C64.6094 50.6914 64.6641 50.332 64.7422 49.8789C64.8281 49.418 64.9258 48.9297 65.0352 48.4141C65.1445 47.8906 65.2578 47.4062 65.375 46.9609L67.0977 40.5156H69.8398L66.1836 53.4883H63.1016ZM74.4453 48.2734H72.3711L71.8086 36.3672H75.0078L74.4453 48.2734ZM71.668 52.0469C71.668 51.4062 71.832 50.957 72.1602 50.6992C72.4961 50.4336 72.9062 50.3008 73.3906 50.3008C73.8672 50.3008 74.2734 50.4336 74.6094 50.6992C74.9453 50.957 75.1133 51.4062 75.1133 52.0469C75.1133 52.6719 74.9453 53.125 74.6094 53.4062C74.2734 53.6797 73.8672 53.8164 73.3906 53.8164C72.9062 53.8164 72.4961 53.6797 72.1602 53.4062C71.832 53.125 71.668 52.6719 71.668 52.0469Z" fill="white"/>
</g>
</svg>
