<svg width="48" height="48" viewBox="0 0 48 48" fill="none" xmlns="http://www.w3.org/2000/svg">
<g id="Icono-agregar-foto">
<path id="Vector" d="M40 29V35H46V38H40V44H37V38H31V35H37V29H40ZM40.0164 4C41.112 4 42 4.8899 42 5.9868V24H39V7H5V37L26 16L32 22V27L26 21L10 37H26V40H3.9836C2.8881 40 2 39.1102 2 38.0132V5.9868C2 4.88952 2.91062 4 3.9836 4H40.0164ZM14 12C16.2091 12 18 13.7909 18 16C18 18.2092 16.2091 20 14 20C11.7909 20 10 18.2092 10 16C10 13.7909 11.7909 12 14 12Z" fill="#DADCE0"/>
</g>
</svg>
