<svg width="32" height="32" viewBox="0 0 32 32" fill="none" xmlns="http://www.w3.org/2000/svg">
<g id="Icon-compras">
<rect width="32" height="32" rx="16" fill="#DA0E5F" fill-opacity="0.12"/>
<g id="Huge-icon">
<g id="shopping bag">
<path id="Rectangle 788" opacity="0.4" d="M9.65674 13.719C9.95235 12.1425 11.3289 11 12.933 11H19.0668C20.6709 11 22.0474 12.1425 22.343 13.719L23.593 20.3857C23.9777 22.4371 22.4039 24.3333 20.3168 24.3333H11.683C9.59585 24.3333 8.02211 22.4371 8.40674 20.3857L9.65674 13.719Z" fill="#DA0E5F"/>
<path id="Rectangle 760 (Stroke)" fill-rule="evenodd" clip-rule="evenodd" d="M12.875 10.166C12.875 8.44013 14.2741 7.04102 16 7.04102C17.7259 7.04102 19.125 8.44013 19.125 10.166V12.666C19.125 13.0112 18.8452 13.291 18.5 13.291C18.1548 13.291 17.875 13.0112 17.875 12.666V10.166C17.875 9.13048 17.0355 8.29102 16 8.29102C14.9645 8.29102 14.125 9.13048 14.125 10.166V12.666C14.125 13.0112 13.8452 13.291 13.5 13.291C13.1548 13.291 12.875 13.0112 12.875 12.666V10.166Z" fill="#DA0E5F"/>
</g>
</g>
</g>
</svg>
