<svg width="40" height="40" viewBox="0 0 40 40" xmlns="http://www.w3.org/2000/svg">
  <g id="Frame 1000006260">
    <g id="Icon">
      <path
        id="shape"
        d="M13.894 27.794c.274.274.719.274.993 0l5.014-5.014c.055-.055.144-.055.199 0l5.014 5.014c.274.274.719.274.993 0l1.688-1.688c.274-.274.274-.719 0-.993l-5.014-5.014c-.055-.055-.055-.144 0-.199l5.014-5.014c.274-.274.274-.719 0-.993l-1.688-1.688c-.274-.274-.719-.274-.993 0l-5.014 5.014c-.055.055-.144.055-.199 0l-5.014-5.014c-.274-.274-.719-.274-.994 0l-1.688 1.688c-.274.274-.274.719 0 .993l5.014 5.014c.055.055.055.144 0 .199l-5.014 5.014c-.274.274-.274.719 0 .993l1.688 1.688z"
        fill="white"
      />
    </g>
  </g>
</svg>
