<svg width="20" height="20" viewBox="0 0 20 20" fill="none" xmlns="http://www.w3.org/2000/svg">
<path id="Vector" d="M0 1.66667C0 0.744792 0.638393 0 1.42857 0H18.5714C19.3616 0 20 0.744792 20 1.66667C20 2.58854 19.3616 3.33333 18.5714 3.33333H1.42857C0.638393 3.33333 0 2.58854 0 1.66667ZM0 10C0 9.07812 0.638393 8.33333 1.42857 8.33333H18.5714C19.3616 8.33333 20 9.07812 20 10C20 10.9219 19.3616 11.6667 18.5714 11.6667H1.42857C0.638393 11.6667 0 10.9219 0 10ZM20 18.3333C20 19.2552 19.3616 20 18.5714 20H1.42857C0.638393 20 0 19.2552 0 18.3333C0 17.4115 0.638393 16.6667 1.42857 16.6667H18.5714C19.3616 16.6667 20 17.4115 20 18.3333Z" fill="rgba(0, 0, 0, 0.60)"/>
</svg>
