<svg width="20" height="20" viewBox="0 0 20 20" fill="none" xmlns="http://www.w3.org/2000/svg">
<g id="Huge Icon/ salir">
<g id="Outline">
<path id="Vector" d="M12.5002 8.5553L11.4228 9.63271C11.0973 9.95815 11.0973 10.4858 11.4228 10.8112L12.5002 11.8886M11.6668 10.222L16.6668 10.222M3.3335 14.3886V6.05527M13.3335 14.3886C13.3335 15.3091 12.5873 16.0553 11.6668 16.0553H8.3335M13.3335 6.05527C13.3335 5.1348 12.5873 4.38861 11.6668 4.38861H8.3335M4.07566 16.5501L5.74233 17.6612C6.84992 18.3996 8.3335 17.6056 8.3335 16.2744V4.16947C8.3335 2.83831 6.84992 2.04432 5.74233 2.78272L4.07566 3.89383C3.612 4.20294 3.3335 4.72333 3.3335 5.28058V15.1633C3.3335 15.7206 3.612 16.2409 4.07566 16.5501Z" stroke="#3C4043" stroke-opacity="0.6" stroke-width="1.5" stroke-linecap="round"/>
</g>
</g>
</svg>
