<svg width="42" height="40" viewBox="0 0 42 40" fill="none" xmlns="http://www.w3.org/2000/svg">
<g id="search-Buttons">
<g id="Frame 1000004347">
<path id="Vector" d="M13.3582 23.7406C14.7438 25.1276 16.5888 25.9603 18.5459 26.0817C20.5029 26.2031 22.4368 25.6049 23.9833 24.3997L29.3043 29.7192C29.493 29.9014 29.7458 30.0022 30.0081 30C30.2705 29.9977 30.5214 29.8925 30.7069 29.707C30.8925 29.5216 30.9977 29.2707 31 29.0084C31.0022 28.7461 30.9014 28.4935 30.7191 28.3048L25.3981 22.9853C26.6571 21.3701 27.2524 19.3355 27.0624 17.2965C26.8725 15.2576 25.9117 13.3679 24.376 12.0128C22.8403 10.6577 20.8453 9.93925 18.798 10.004C16.7507 10.0688 14.8052 10.9119 13.3582 12.3614C12.6106 13.1084 12.0175 13.9954 11.6129 14.9716C11.2083 15.9479 11 16.9943 11 18.051C11 19.1077 11.2083 20.1541 11.6129 21.1303C12.0175 22.1066 12.6106 22.9935 13.3582 23.7406V23.7406ZM14.773 13.7778C15.7622 12.789 17.0637 12.1736 18.4558 12.0365C19.8479 11.8994 21.2444 12.2491 22.4076 13.026C23.5707 13.8029 24.4284 14.9589 24.8345 16.2971C25.2406 17.6353 25.17 19.0729 24.6348 20.3649C24.0996 21.6569 23.1328 22.7234 21.8992 23.3827C20.6656 24.0421 19.2415 24.2534 17.8695 23.9807C16.4975 23.7081 15.2626 22.9683 14.375 21.8874C13.4875 20.8065 13.0022 19.4514 13.002 18.053C12.9993 17.2583 13.1544 16.4711 13.4584 15.7368C13.7625 15.0026 14.2093 14.336 14.773 13.7758V13.7778Z" fill="black" fill-opacity="0.6"/>
</g>
</g>
</svg>
