<svg width="20" height="20" viewBox="0 0 20 20" fill="none" xmlns="http://www.w3.org/2000/svg">
<g id="Huge Icon/ Store">
<g id="Outline" clip-path="url(#clip0_848_4254)">
<path id="Rectangle 742" d="M16.6668 10V15C16.6668 16.8409 15.1744 18.3333 13.3335 18.3333H6.66683C4.82588 18.3333 3.3335 16.8409 3.3335 15V10" stroke="#3C4043" stroke-opacity="0.6" stroke-width="1.5"/>
<path id="Vector" d="M13.9741 1.66797H6.02622C4.51176 1.66797 3.14987 2.70527 2.58742 4.28718L1.95577 6.0637C1.76456 6.60146 1.63239 7.17692 1.77185 7.73037C2.10214 9.0411 3.1737 10.0013 4.44462 10.0013C5.97874 10.0013 7.22239 8.60219 7.22239 6.8763C7.22239 8.60219 8.46605 10.0013 10.0002 10.0013C11.5343 10.0013 12.778 8.60219 12.778 6.8763C12.778 8.60219 14.0216 10.0013 15.5557 10.0013C16.8266 10.0013 17.8982 9.0411 18.2285 7.73036C18.368 7.17692 18.2358 6.60146 18.0446 6.0637L17.4129 4.28717C16.8505 2.70526 15.4886 1.66797 13.9741 1.66797Z" stroke="#3C4043" stroke-opacity="0.6" stroke-width="1.5" stroke-linejoin="round"/>
<path id="Vector 1788" d="M7.5 14.168C9.46345 15.2849 10.5396 15.2732 12.5 14.168" stroke="#3C4043" stroke-opacity="0.6" stroke-width="1.5" stroke-linecap="round" stroke-linejoin="round"/>
</g>
</g>
<defs>
<clipPath id="clip0_848_4254">
<rect width="20" height="20" fill="white"/>
</clipPath>
</defs>
</svg>
