<svg width="40" height="32" viewBox="0 0 40 32" fill="none" xmlns="http://www.w3.org/2000/svg">
<g id="super-cart">
<g id="Frame 1000004335">
<path id="Vector" d="M38.9726 9.61563C37.9471 9.61563 39.0448 9.61566 37.9471 9.61564C36.9215 9.61563 36.3586 9.62635 35.6497 9.61564H22.6217H10.5226L8.20477 1.42408C8.08457 1.00457 7.8164 0.635578 7.44393 0.377194C7.07147 0.118809 6.61666 -0.0137425 6.15358 0.00112775H2.05119C1.50718 0.00112775 0.985453 0.203719 0.60078 0.564333C0.216107 0.924947 0 1.41405 0 1.92403C0 2.43402 0.216107 2.92311 0.60078 3.28373C0.985453 3.64434 1.50718 3.84693 2.05119 3.84693H4.59467L7.42531 13.7114L10.256 23.5759C10.3762 23.9954 10.6443 24.3644 11.0168 24.6228C11.3893 24.8812 11.8441 25.0137 12.3072 24.9989H30.7679C31.1467 24.9978 31.5177 24.8984 31.84 24.7117C32.1622 24.5251 32.423 24.2584 32.5934 23.9413L39.3213 11.327C39.613 10.754 40.0305 10.2498 39.9982 9.61563C39.2544 9.74314 39.9982 9.61563 38.9726 9.61563ZM29.4961 21.1531H21.6811H13.8661L10.5226 9.61564H22.6217H35.6497L29.4961 21.1531Z" fill="#00ccff"/>
<path id="Vector_2" d="M14.5 32C16.1569 32 17.5 30.6569 17.5 29C17.5 27.3431 16.1569 26 14.5 26C12.8431 26 11.5 27.3431 11.5 29C11.5 30.6569 12.8431 32 14.5 32Z" fill="#00ccff"/>
<path id="Vector_3" d="M27.5 32C29.1569 32 30.5 30.6569 30.5 29C30.5 27.3431 29.1569 26 27.5 26C25.8431 26 24.5 27.3431 24.5 29C24.5 30.6569 25.8431 32 27.5 32Z" fill="#00ccff"/>
</g>
</g>
</svg>
