<svg width="20" height="20" viewBox="0 0 20 20" fill="none" xmlns="http://www.w3.org/2000/svg">
<g id="Huge-icon">
<path id="Vector" d="M13.0597 5.37167C13.0597 6.98318 11.7099 8.32538 10.0002 8.32538V9.82538C12.4983 9.82538 14.5597 7.85116 14.5597 5.37167H13.0597ZM10.0002 8.32538C8.29038 8.32538 6.94064 6.98318 6.94064 5.37167H5.44064C5.44064 7.85116 7.50206 9.82538 10.0002 9.82538V8.32538ZM6.94064 5.37167C6.94064 3.76016 8.29038 2.41797 10.0002 2.41797V0.917969C7.50206 0.917969 5.44064 2.89218 5.44064 5.37167H6.94064ZM10.0002 2.41797C11.7099 2.41797 13.0597 3.76016 13.0597 5.37167H14.5597C14.5597 2.89218 12.4983 0.917969 10.0002 0.917969V2.41797ZM15.9168 15.0939C15.9168 15.5405 15.5211 16.1593 14.3863 16.7109C13.3026 17.2377 11.7528 17.5846 10.0002 17.5846V19.0846C11.9294 19.0846 13.713 18.7061 15.0421 18.06C16.3202 17.4387 17.4168 16.4371 17.4168 15.0939H15.9168ZM10.0002 17.5846C8.24752 17.5846 6.69773 17.2377 5.61401 16.7109C4.4792 16.1593 4.0835 15.5405 4.0835 15.0939H2.5835C2.5835 16.4371 3.68017 17.4387 4.95822 18.06C6.28737 18.7061 8.0709 19.0846 10.0002 19.0846V17.5846ZM4.0835 15.0939C4.0835 14.6473 4.4792 14.0285 5.61401 13.4769C6.69773 12.9501 8.24752 12.6032 10.0002 12.6032V11.1032C8.0709 11.1032 6.28737 11.4817 4.95822 12.1278C3.68017 12.7491 2.5835 13.7507 2.5835 15.0939H4.0835ZM10.0002 12.6032C11.7528 12.6032 13.3026 12.9501 14.3863 13.4769C15.5211 14.0285 15.9168 14.6473 15.9168 15.0939H17.4168C17.4168 13.7507 16.3202 12.7491 15.0421 12.1278C13.713 11.4817 11.9294 11.1032 10.0002 11.1032V12.6032Z" fill="#3C4043" fill-opacity="0.6"/>
</g>
</svg>
